<mxfile host="app.diagrams.net" modified="2021-10-01T13:58:03.716Z" agent="5.0 (Windows NT 10.0; Win64; x64) AppleWebKit/537.36 (KHTML, like Gecko) Chrome/94.0.4606.61 Safari/537.36" etag="lWfyfbkiaUS7_81O5PMp" version="15.4.0" type="github">
  <diagram id="C5RBs43oDa-KdzZeNtuy" name="Page-1">
    <mxGraphModel dx="2249" dy="794" grid="1" gridSize="10" guides="1" tooltips="1" connect="1" arrows="1" fold="1" page="1" pageScale="1" pageWidth="827" pageHeight="1169" math="0" shadow="0">
      <root>
        <mxCell id="WIyWlLk6GJQsqaUBKTNV-0" />
        <mxCell id="WIyWlLk6GJQsqaUBKTNV-1" parent="WIyWlLk6GJQsqaUBKTNV-0" />
        <mxCell id="-PucqjqUt_QQAcG7ATKI-1" style="edgeStyle=orthogonalEdgeStyle;rounded=0;orthogonalLoop=1;jettySize=auto;html=1;exitX=0.5;exitY=1;exitDx=0;exitDy=0;endArrow=none;endFill=0;" edge="1" parent="WIyWlLk6GJQsqaUBKTNV-1" source="WIyWlLk6GJQsqaUBKTNV-3" target="-PucqjqUt_QQAcG7ATKI-0">
          <mxGeometry relative="1" as="geometry" />
        </mxCell>
        <mxCell id="WIyWlLk6GJQsqaUBKTNV-3" value="User commits code" style="rounded=1;whiteSpace=wrap;html=1;fontSize=12;glass=0;strokeWidth=1;shadow=0;" parent="WIyWlLk6GJQsqaUBKTNV-1" vertex="1">
          <mxGeometry x="350" y="10" width="120" height="40" as="geometry" />
        </mxCell>
        <mxCell id="WIyWlLk6GJQsqaUBKTNV-4" value="No" style="rounded=0;html=1;jettySize=auto;orthogonalLoop=1;fontSize=11;endArrow=block;endFill=0;endSize=8;strokeWidth=1;shadow=0;labelBackgroundColor=none;edgeStyle=orthogonalEdgeStyle;startArrow=none;exitX=0.5;exitY=1;exitDx=0;exitDy=0;" parent="WIyWlLk6GJQsqaUBKTNV-1" source="WIyWlLk6GJQsqaUBKTNV-6" edge="1">
          <mxGeometry y="20" relative="1" as="geometry">
            <mxPoint as="offset" />
            <mxPoint x="559.5" y="348" as="sourcePoint" />
            <mxPoint x="559.5" y="528" as="targetPoint" />
          </mxGeometry>
        </mxCell>
        <mxCell id="WIyWlLk6GJQsqaUBKTNV-5" value="Yes" style="edgeStyle=orthogonalEdgeStyle;rounded=0;html=1;jettySize=auto;orthogonalLoop=1;fontSize=11;endArrow=block;endFill=0;endSize=8;strokeWidth=1;shadow=0;labelBackgroundColor=none;" parent="WIyWlLk6GJQsqaUBKTNV-1" source="WIyWlLk6GJQsqaUBKTNV-6" target="WIyWlLk6GJQsqaUBKTNV-7" edge="1">
          <mxGeometry y="10" relative="1" as="geometry">
            <mxPoint as="offset" />
          </mxGeometry>
        </mxCell>
        <mxCell id="-PucqjqUt_QQAcG7ATKI-30" style="edgeStyle=orthogonalEdgeStyle;rounded=0;orthogonalLoop=1;jettySize=auto;html=1;exitX=1;exitY=0;exitDx=0;exitDy=0;entryX=0.5;entryY=0;entryDx=0;entryDy=0;endArrow=classic;endFill=1;dashed=1;" edge="1" parent="WIyWlLk6GJQsqaUBKTNV-1" source="WIyWlLk6GJQsqaUBKTNV-6" target="-PucqjqUt_QQAcG7ATKI-29">
          <mxGeometry relative="1" as="geometry">
            <Array as="points">
              <mxPoint x="585" y="240" />
              <mxPoint x="927" y="240" />
            </Array>
          </mxGeometry>
        </mxCell>
        <mxCell id="-PucqjqUt_QQAcG7ATKI-31" value="This paper" style="edgeLabel;html=1;align=center;verticalAlign=middle;resizable=0;points=[];" vertex="1" connectable="0" parent="-PucqjqUt_QQAcG7ATKI-30">
          <mxGeometry x="-0.1185" relative="1" as="geometry">
            <mxPoint as="offset" />
          </mxGeometry>
        </mxCell>
        <mxCell id="WIyWlLk6GJQsqaUBKTNV-6" value="Commit has good quality?" style="rhombus;whiteSpace=wrap;html=1;shadow=0;fontFamily=Helvetica;fontSize=12;align=center;strokeWidth=1;spacing=6;spacingTop=-4;fillColor=#f8cecc;strokeColor=#b85450;" parent="WIyWlLk6GJQsqaUBKTNV-1" vertex="1">
          <mxGeometry x="510" y="260" width="100" height="80" as="geometry" />
        </mxCell>
        <mxCell id="WIyWlLk6GJQsqaUBKTNV-7" value="Fill in automatic generated Commit message that describes the what" style="rounded=1;whiteSpace=wrap;html=1;fontSize=12;glass=0;strokeWidth=1;shadow=0;fillColor=#d5e8d4;strokeColor=#82b366;" parent="WIyWlLk6GJQsqaUBKTNV-1" vertex="1">
          <mxGeometry x="670" y="267.5" width="130" height="65" as="geometry" />
        </mxCell>
        <mxCell id="ehUS5vEalh1Y3p8HzJdk-3" style="edgeStyle=orthogonalEdgeStyle;rounded=0;orthogonalLoop=1;jettySize=auto;html=1;endArrow=none;endFill=0;" parent="WIyWlLk6GJQsqaUBKTNV-1" source="ehUS5vEalh1Y3p8HzJdk-0" target="ehUS5vEalh1Y3p8HzJdk-2" edge="1">
          <mxGeometry relative="1" as="geometry" />
        </mxCell>
        <mxCell id="-PucqjqUt_QQAcG7ATKI-7" style="edgeStyle=orthogonalEdgeStyle;rounded=0;orthogonalLoop=1;jettySize=auto;html=1;endArrow=classic;endFill=1;" edge="1" parent="WIyWlLk6GJQsqaUBKTNV-1" source="ehUS5vEalh1Y3p8HzJdk-0">
          <mxGeometry relative="1" as="geometry">
            <mxPoint x="-60" y="530" as="targetPoint" />
          </mxGeometry>
        </mxCell>
        <mxCell id="-PucqjqUt_QQAcG7ATKI-23" value="This Paper" style="edgeStyle=orthogonalEdgeStyle;rounded=0;orthogonalLoop=1;jettySize=auto;html=1;endArrow=classic;endFill=1;dashed=1;" edge="1" parent="WIyWlLk6GJQsqaUBKTNV-1" source="ehUS5vEalh1Y3p8HzJdk-0" target="-PucqjqUt_QQAcG7ATKI-4">
          <mxGeometry relative="1" as="geometry" />
        </mxCell>
        <mxCell id="ehUS5vEalh1Y3p8HzJdk-0" value="System determines commit type" style="rounded=1;whiteSpace=wrap;html=1;fontSize=12;glass=0;strokeWidth=1;shadow=0;fillColor=#f8cecc;strokeColor=#b85450;" parent="WIyWlLk6GJQsqaUBKTNV-1" vertex="1">
          <mxGeometry x="350" y="130" width="120" height="40" as="geometry" />
        </mxCell>
        <mxCell id="ehUS5vEalh1Y3p8HzJdk-4" style="edgeStyle=orthogonalEdgeStyle;rounded=0;orthogonalLoop=1;jettySize=auto;html=1;" parent="WIyWlLk6GJQsqaUBKTNV-1" source="ehUS5vEalh1Y3p8HzJdk-2" target="WIyWlLk6GJQsqaUBKTNV-6" edge="1">
          <mxGeometry relative="1" as="geometry" />
        </mxCell>
        <mxCell id="ehUS5vEalh1Y3p8HzJdk-29" value="generate commit message automatically" style="edgeLabel;html=1;align=center;verticalAlign=middle;resizable=0;points=[];" parent="ehUS5vEalh1Y3p8HzJdk-4" vertex="1" connectable="0">
          <mxGeometry y="-1" relative="1" as="geometry">
            <mxPoint x="50" y="-11" as="offset" />
          </mxGeometry>
        </mxCell>
        <mxCell id="ehUS5vEalh1Y3p8HzJdk-25" style="edgeStyle=orthogonalEdgeStyle;rounded=0;orthogonalLoop=1;jettySize=auto;html=1;entryX=0.5;entryY=0;entryDx=0;entryDy=0;endArrow=classic;endFill=1;" parent="WIyWlLk6GJQsqaUBKTNV-1" source="ehUS5vEalh1Y3p8HzJdk-2" target="ehUS5vEalh1Y3p8HzJdk-18" edge="1">
          <mxGeometry relative="1" as="geometry" />
        </mxCell>
        <mxCell id="ehUS5vEalh1Y3p8HzJdk-30" value="Link issue to commit message" style="edgeLabel;html=1;align=center;verticalAlign=middle;resizable=0;points=[];" parent="ehUS5vEalh1Y3p8HzJdk-25" vertex="1" connectable="0">
          <mxGeometry x="0.2" y="1" relative="1" as="geometry">
            <mxPoint x="-32" y="-11" as="offset" />
          </mxGeometry>
        </mxCell>
        <mxCell id="ehUS5vEalh1Y3p8HzJdk-2" value="System tries to generate commit message and link issue" style="rounded=1;whiteSpace=wrap;html=1;fontSize=12;glass=0;strokeWidth=1;shadow=0;fillColor=#f8cecc;strokeColor=#b85450;" parent="WIyWlLk6GJQsqaUBKTNV-1" vertex="1">
          <mxGeometry x="350" y="190" width="130" height="60" as="geometry" />
        </mxCell>
        <mxCell id="ehUS5vEalh1Y3p8HzJdk-16" value="No" style="rounded=0;html=1;jettySize=auto;orthogonalLoop=1;fontSize=11;endArrow=block;endFill=0;endSize=8;strokeWidth=1;shadow=0;labelBackgroundColor=none;edgeStyle=orthogonalEdgeStyle;startArrow=none;exitX=0.5;exitY=1;exitDx=0;exitDy=0;" parent="WIyWlLk6GJQsqaUBKTNV-1" source="ehUS5vEalh1Y3p8HzJdk-18" edge="1">
          <mxGeometry y="20" relative="1" as="geometry">
            <mxPoint as="offset" />
            <mxPoint x="290" y="322" as="sourcePoint" />
            <mxPoint x="290" y="370" as="targetPoint" />
          </mxGeometry>
        </mxCell>
        <mxCell id="ehUS5vEalh1Y3p8HzJdk-17" value="Yes" style="edgeStyle=orthogonalEdgeStyle;rounded=0;html=1;jettySize=auto;orthogonalLoop=1;fontSize=11;endArrow=block;endFill=0;endSize=8;strokeWidth=1;shadow=0;labelBackgroundColor=none;" parent="WIyWlLk6GJQsqaUBKTNV-1" source="ehUS5vEalh1Y3p8HzJdk-18" target="ehUS5vEalh1Y3p8HzJdk-19" edge="1">
          <mxGeometry y="10" relative="1" as="geometry">
            <mxPoint as="offset" />
          </mxGeometry>
        </mxCell>
        <mxCell id="-PucqjqUt_QQAcG7ATKI-21" style="edgeStyle=orthogonalEdgeStyle;rounded=0;orthogonalLoop=1;jettySize=auto;html=1;exitX=0;exitY=0;exitDx=0;exitDy=0;entryX=1;entryY=0.5;entryDx=0;entryDy=0;endArrow=classic;endFill=1;dashed=1;" edge="1" parent="WIyWlLk6GJQsqaUBKTNV-1" source="ehUS5vEalh1Y3p8HzJdk-18" target="-PucqjqUt_QQAcG7ATKI-18">
          <mxGeometry relative="1" as="geometry">
            <Array as="points">
              <mxPoint x="265" y="240" />
              <mxPoint x="80" y="240" />
              <mxPoint x="80" y="170" />
            </Array>
          </mxGeometry>
        </mxCell>
        <mxCell id="-PucqjqUt_QQAcG7ATKI-22" value="This Paper" style="edgeLabel;html=1;align=center;verticalAlign=middle;resizable=0;points=[];" vertex="1" connectable="0" parent="-PucqjqUt_QQAcG7ATKI-21">
          <mxGeometry x="0.3977" relative="1" as="geometry">
            <mxPoint as="offset" />
          </mxGeometry>
        </mxCell>
        <mxCell id="ehUS5vEalh1Y3p8HzJdk-18" value="Issue found to commit" style="rhombus;whiteSpace=wrap;html=1;shadow=0;fontFamily=Helvetica;fontSize=12;align=center;strokeWidth=1;spacing=6;spacingTop=-4;fillColor=#f8cecc;strokeColor=#b85450;" parent="WIyWlLk6GJQsqaUBKTNV-1" vertex="1">
          <mxGeometry x="240" y="240" width="100" height="80" as="geometry" />
        </mxCell>
        <mxCell id="ehUS5vEalh1Y3p8HzJdk-19" value="Fill in the commit id in the footer of the commit" style="rounded=1;whiteSpace=wrap;html=1;fontSize=12;glass=0;strokeWidth=1;shadow=0;fillColor=#d5e8d4;strokeColor=#82b366;" parent="WIyWlLk6GJQsqaUBKTNV-1" vertex="1">
          <mxGeometry x="40" y="255" width="120" height="50" as="geometry" />
        </mxCell>
        <mxCell id="ehUS5vEalh1Y3p8HzJdk-20" value="No" style="rounded=0;html=1;jettySize=auto;orthogonalLoop=1;fontSize=11;endArrow=block;endFill=0;endSize=8;strokeWidth=1;shadow=0;labelBackgroundColor=none;edgeStyle=orthogonalEdgeStyle;" parent="WIyWlLk6GJQsqaUBKTNV-1" source="ehUS5vEalh1Y3p8HzJdk-22" target="ehUS5vEalh1Y3p8HzJdk-23" edge="1">
          <mxGeometry x="0.3333" y="20" relative="1" as="geometry">
            <mxPoint as="offset" />
          </mxGeometry>
        </mxCell>
        <mxCell id="ehUS5vEalh1Y3p8HzJdk-21" value="Yes" style="edgeStyle=orthogonalEdgeStyle;rounded=0;html=1;jettySize=auto;orthogonalLoop=1;fontSize=11;endArrow=block;endFill=0;endSize=8;strokeWidth=1;shadow=0;labelBackgroundColor=none;" parent="WIyWlLk6GJQsqaUBKTNV-1" source="ehUS5vEalh1Y3p8HzJdk-22" edge="1">
          <mxGeometry y="10" relative="1" as="geometry">
            <mxPoint as="offset" />
            <mxPoint x="289" y="530" as="targetPoint" />
          </mxGeometry>
        </mxCell>
        <mxCell id="ehUS5vEalh1Y3p8HzJdk-22" value="Does the commit need a why?" style="rhombus;whiteSpace=wrap;html=1;shadow=0;fontFamily=Helvetica;fontSize=12;align=center;strokeWidth=1;spacing=6;spacingTop=-4;" parent="WIyWlLk6GJQsqaUBKTNV-1" vertex="1">
          <mxGeometry x="224" y="370" width="130" height="110" as="geometry" />
        </mxCell>
        <mxCell id="ehUS5vEalh1Y3p8HzJdk-23" value="No Why is added to commit message" style="rounded=1;whiteSpace=wrap;html=1;fontSize=12;glass=0;strokeWidth=1;shadow=0;fillColor=#d5e8d4;strokeColor=#82b366;" parent="WIyWlLk6GJQsqaUBKTNV-1" vertex="1">
          <mxGeometry x="40" y="405" width="120" height="40" as="geometry" />
        </mxCell>
        <mxCell id="ehUS5vEalh1Y3p8HzJdk-40" value="Dialog System" style="swimlane;horizontal=0;fillColor=none;" parent="WIyWlLk6GJQsqaUBKTNV-1" vertex="1">
          <mxGeometry x="-260" y="528" width="962" height="290" as="geometry">
            <mxRectangle x="162" y="468" width="30" height="110" as="alternateBounds" />
          </mxGeometry>
        </mxCell>
        <mxCell id="WIyWlLk6GJQsqaUBKTNV-11" value="Ask the user questions about parts of the diff" style="rounded=1;whiteSpace=wrap;html=1;fontSize=12;glass=0;strokeWidth=1;shadow=0;" parent="ehUS5vEalh1Y3p8HzJdk-40" vertex="1">
          <mxGeometry x="207" y="12" width="120" height="50" as="geometry" />
        </mxCell>
        <mxCell id="ehUS5vEalh1Y3p8HzJdk-35" value="no" style="edgeStyle=orthogonalEdgeStyle;rounded=0;orthogonalLoop=1;jettySize=auto;html=1;endArrow=classic;endFill=1;entryX=1;entryY=0.5;entryDx=0;entryDy=0;exitX=1;exitY=0.5;exitDx=0;exitDy=0;" parent="ehUS5vEalh1Y3p8HzJdk-40" source="ehUS5vEalh1Y3p8HzJdk-31" target="WIyWlLk6GJQsqaUBKTNV-11" edge="1">
          <mxGeometry relative="1" as="geometry">
            <mxPoint x="267" y="165" as="targetPoint" />
            <Array as="points">
              <mxPoint x="357" y="136" />
              <mxPoint x="357" y="37" />
            </Array>
          </mxGeometry>
        </mxCell>
        <mxCell id="ehUS5vEalh1Y3p8HzJdk-37" value="yes" style="edgeStyle=orthogonalEdgeStyle;rounded=0;orthogonalLoop=1;jettySize=auto;html=1;exitX=0.5;exitY=1;exitDx=0;exitDy=0;endArrow=classic;endFill=1;" parent="ehUS5vEalh1Y3p8HzJdk-40" source="ehUS5vEalh1Y3p8HzJdk-31" edge="1">
          <mxGeometry relative="1" as="geometry">
            <mxPoint x="267" y="215" as="targetPoint" />
          </mxGeometry>
        </mxCell>
        <mxCell id="ehUS5vEalh1Y3p8HzJdk-31" value="All changes are reflected in the message" style="rhombus;whiteSpace=wrap;html=1;shadow=0;fontFamily=Helvetica;fontSize=12;align=center;strokeWidth=1;spacing=6;spacingTop=-4;" parent="ehUS5vEalh1Y3p8HzJdk-40" vertex="1">
          <mxGeometry x="202" y="82" width="130" height="107.25" as="geometry" />
        </mxCell>
        <mxCell id="ehUS5vEalh1Y3p8HzJdk-32" style="edgeStyle=orthogonalEdgeStyle;rounded=0;orthogonalLoop=1;jettySize=auto;html=1;entryX=0.5;entryY=0;entryDx=0;entryDy=0;endArrow=classic;endFill=1;" parent="ehUS5vEalh1Y3p8HzJdk-40" source="WIyWlLk6GJQsqaUBKTNV-11" target="ehUS5vEalh1Y3p8HzJdk-31" edge="1">
          <mxGeometry relative="1" as="geometry" />
        </mxCell>
        <mxCell id="ehUS5vEalh1Y3p8HzJdk-38" value="Add What to the commit message" style="rounded=1;whiteSpace=wrap;html=1;fontSize=12;glass=0;strokeWidth=1;shadow=0;fillColor=#d5e8d4;strokeColor=#82b366;" parent="ehUS5vEalh1Y3p8HzJdk-40" vertex="1">
          <mxGeometry x="212" y="215" width="120" height="50" as="geometry" />
        </mxCell>
        <mxCell id="-PucqjqUt_QQAcG7ATKI-2" style="edgeStyle=orthogonalEdgeStyle;rounded=0;orthogonalLoop=1;jettySize=auto;html=1;exitX=0.5;exitY=1;exitDx=0;exitDy=0;entryX=0.5;entryY=0;entryDx=0;entryDy=0;endArrow=none;endFill=0;" edge="1" parent="WIyWlLk6GJQsqaUBKTNV-1" source="-PucqjqUt_QQAcG7ATKI-0" target="ehUS5vEalh1Y3p8HzJdk-0">
          <mxGeometry relative="1" as="geometry" />
        </mxCell>
        <mxCell id="-PucqjqUt_QQAcG7ATKI-11" style="edgeStyle=orthogonalEdgeStyle;rounded=0;orthogonalLoop=1;jettySize=auto;html=1;entryX=1;entryY=0.5;entryDx=0;entryDy=0;endArrow=classic;endFill=1;" edge="1" parent="WIyWlLk6GJQsqaUBKTNV-1" source="-PucqjqUt_QQAcG7ATKI-0" target="-PucqjqUt_QQAcG7ATKI-10">
          <mxGeometry relative="1" as="geometry" />
        </mxCell>
        <mxCell id="-PucqjqUt_QQAcG7ATKI-25" value="Fails" style="edgeLabel;html=1;align=center;verticalAlign=middle;resizable=0;points=[];" vertex="1" connectable="0" parent="-PucqjqUt_QQAcG7ATKI-11">
          <mxGeometry x="-0.2286" y="3" relative="1" as="geometry">
            <mxPoint x="-16" y="-3" as="offset" />
          </mxGeometry>
        </mxCell>
        <mxCell id="-PucqjqUt_QQAcG7ATKI-26" style="edgeStyle=orthogonalEdgeStyle;rounded=0;orthogonalLoop=1;jettySize=auto;html=1;exitX=1;exitY=0.5;exitDx=0;exitDy=0;endArrow=classic;endFill=1;dashed=1;" edge="1" parent="WIyWlLk6GJQsqaUBKTNV-1" source="-PucqjqUt_QQAcG7ATKI-0" target="-PucqjqUt_QQAcG7ATKI-3">
          <mxGeometry relative="1" as="geometry" />
        </mxCell>
        <mxCell id="-PucqjqUt_QQAcG7ATKI-27" value="This Paper" style="edgeLabel;html=1;align=center;verticalAlign=middle;resizable=0;points=[];" vertex="1" connectable="0" parent="-PucqjqUt_QQAcG7ATKI-26">
          <mxGeometry x="-0.3111" y="-1" relative="1" as="geometry">
            <mxPoint as="offset" />
          </mxGeometry>
        </mxCell>
        <mxCell id="-PucqjqUt_QQAcG7ATKI-0" value="Splits (Untangles) Commit Message" style="rounded=1;whiteSpace=wrap;html=1;fontSize=12;glass=0;strokeWidth=1;shadow=0;fillColor=#f8cecc;strokeColor=#b85450;" vertex="1" parent="WIyWlLk6GJQsqaUBKTNV-1">
          <mxGeometry x="350" y="70" width="120" height="40" as="geometry" />
        </mxCell>
        <mxCell id="-PucqjqUt_QQAcG7ATKI-3" value="https://github.com/PPPI/Flexeme" style="rounded=1;whiteSpace=wrap;html=1;fillColor=#fff2cc;strokeColor=#d6b656;" vertex="1" parent="WIyWlLk6GJQsqaUBKTNV-1">
          <mxGeometry x="640" y="60" width="195" height="40" as="geometry" />
        </mxCell>
        <mxCell id="-PucqjqUt_QQAcG7ATKI-4" value="&lt;div&gt;Using Source Code Density to Improve the Accuracy of Automatic Commit Classification into Maintenance Activities&lt;/div&gt;&lt;div&gt;(90% Accuracy and also only have 3 types)&lt;/div&gt;" style="rounded=1;whiteSpace=wrap;html=1;fillColor=#fff2cc;strokeColor=#d6b656;" vertex="1" parent="WIyWlLk6GJQsqaUBKTNV-1">
          <mxGeometry x="640" y="115" width="280" height="70" as="geometry" />
        </mxCell>
        <mxCell id="-PucqjqUt_QQAcG7ATKI-13" style="edgeStyle=orthogonalEdgeStyle;rounded=0;orthogonalLoop=1;jettySize=auto;html=1;entryX=1;entryY=0.5;entryDx=0;entryDy=0;endArrow=classic;endFill=1;" edge="1" parent="WIyWlLk6GJQsqaUBKTNV-1" source="-PucqjqUt_QQAcG7ATKI-10" target="-PucqjqUt_QQAcG7ATKI-12">
          <mxGeometry relative="1" as="geometry" />
        </mxCell>
        <mxCell id="-PucqjqUt_QQAcG7ATKI-10" value="Idea: ask user if this commit is tangled" style="rounded=1;whiteSpace=wrap;html=1;fillColor=none;" vertex="1" parent="WIyWlLk6GJQsqaUBKTNV-1">
          <mxGeometry x="90" y="60" width="120" height="60" as="geometry" />
        </mxCell>
        <mxCell id="-PucqjqUt_QQAcG7ATKI-12" value="User selects parts to commit and then the system is executed on these parts" style="rounded=1;whiteSpace=wrap;html=1;fillColor=none;" vertex="1" parent="WIyWlLk6GJQsqaUBKTNV-1">
          <mxGeometry x="-90" y="60" width="120" height="60" as="geometry" />
        </mxCell>
        <mxCell id="-PucqjqUt_QQAcG7ATKI-18" value="&lt;span style=&quot;text-align: left&quot;&gt;https://github.com/MalihehIzadi/hybrid-linker&lt;br&gt;F-measure = 88%&lt;br&gt;&lt;/span&gt;" style="rounded=1;whiteSpace=wrap;html=1;fillColor=#fff2cc;strokeColor=#d6b656;" vertex="1" parent="WIyWlLk6GJQsqaUBKTNV-1">
          <mxGeometry x="-340" y="140" width="260" height="60" as="geometry" />
        </mxCell>
        <UserObject label="https://github.com/cqu-isse/QAcom" link="https://github.com/cqu-isse/QAcom" id="-PucqjqUt_QQAcG7ATKI-29">
          <mxCell style="rounded=1;whiteSpace=wrap;html=1;fillColor=#fff2cc;strokeColor=#d6b656;" vertex="1" parent="WIyWlLk6GJQsqaUBKTNV-1">
            <mxGeometry x="827" y="280" width="200" height="40" as="geometry" />
          </mxCell>
        </UserObject>
        <mxCell id="-PucqjqUt_QQAcG7ATKI-34" value="Boxes with Green Color: Part of the commit message is generated" style="rounded=1;whiteSpace=wrap;html=1;fillColor=#d5e8d4;strokeColor=#82b366;" vertex="1" parent="WIyWlLk6GJQsqaUBKTNV-1">
          <mxGeometry x="827" y="480" width="120" height="60" as="geometry" />
        </mxCell>
        <mxCell id="-PucqjqUt_QQAcG7ATKI-35" value="Legend:" style="text;html=1;align=center;verticalAlign=middle;resizable=0;points=[];autosize=1;strokeColor=none;fillColor=none;" vertex="1" parent="WIyWlLk6GJQsqaUBKTNV-1">
          <mxGeometry x="760" y="480" width="60" height="20" as="geometry" />
        </mxCell>
        <mxCell id="-PucqjqUt_QQAcG7ATKI-36" value="Boxes with Red Color: Taks that can be automated with some solution" style="rounded=1;whiteSpace=wrap;html=1;fillColor=#f8cecc;strokeColor=#b85450;" vertex="1" parent="WIyWlLk6GJQsqaUBKTNV-1">
          <mxGeometry x="827" y="550" width="120" height="60" as="geometry" />
        </mxCell>
        <mxCell id="-PucqjqUt_QQAcG7ATKI-37" value="Boxes with Yellow Color: Paper Implementation" style="rounded=1;whiteSpace=wrap;html=1;fillColor=#fff2cc;strokeColor=#d6b656;" vertex="1" parent="WIyWlLk6GJQsqaUBKTNV-1">
          <mxGeometry x="827" y="620" width="120" height="60" as="geometry" />
        </mxCell>
      </root>
    </mxGraphModel>
  </diagram>
</mxfile>
